<svg width="11" height="6" viewBox="0 0 11 6" fill="none" xmlns="http://www.w3.org/2000/svg">
<path d="M5.06848 5.99999C4.94728 6.00056 4.82718 5.97692 4.71523 5.93045C4.60329 5.88399 4.50175 5.81563 4.41658 5.72939L0.148457 1.42437C0.0360462 1.25099 -0.0149019 1.04489 0.00377884 0.839105C0.0224596 0.633321 0.109688 0.439766 0.251482 0.289465C0.393276 0.139163 0.581425 0.040817 0.785774 0.0101907C0.990122 -0.0204357 1.19884 0.0184311 1.37846 0.120561L5.06848 3.81058L8.7585 0.120561C8.93813 0.0184311 9.14684 -0.0204357 9.35119 0.0101907C9.55554 0.040817 9.74369 0.139163 9.88548 0.289465C10.0273 0.439766 10.1145 0.633321 10.1332 0.839105C10.1519 1.04489 10.1009 1.25099 9.98851 1.42437L5.68349 5.72939C5.5205 5.89472 5.30049 5.99152 5.06848 5.99999V5.99999Z" fill="#2E2E2E"/>
</svg>
