<svg width="17" height="16" viewBox="0 0 17 16" fill="none" xmlns="http://www.w3.org/2000/svg">
<path d="M3.56232 12.1997H14.126C14.4666 12.1997 14.7932 12.0644 15.0341 11.8236C15.2749 11.5828 15.4102 11.2561 15.4102 10.9156V2.56836C15.4102 2.22778 15.2749 1.90114 15.0341 1.66031C14.7932 1.41948 14.4666 1.28418 14.126 1.28418H2.56836C2.22778 1.28418 1.90114 1.41948 1.66031 1.66031C1.41948 1.90114 1.28418 2.22778 1.28418 2.56836V14.0233L3.56232 12.1997ZM4.01307 13.4839L1.04276 15.8597C0.948343 15.935 0.834573 15.9823 0.714522 15.9959C0.594471 16.0095 0.47301 15.989 0.364099 15.9367C0.255187 15.8844 0.163245 15.8024 0.0988374 15.7002C0.0344301 15.598 0.000171994 15.4796 0 15.3588V2.56836C0 1.88719 0.270595 1.23392 0.752257 0.752257C1.23392 0.270595 1.88719 0 2.56836 0H14.126C14.8072 0 15.4605 0.270595 15.9421 0.752257C16.4238 1.23392 16.6944 1.88719 16.6944 2.56836V10.9156C16.6944 11.5967 16.4238 12.25 15.9421 12.7317C15.4605 13.2133 14.8072 13.4839 14.126 13.4839H4.01307Z" fill="black"/>
</svg>
