<svg width="16" height="18" viewBox="0 0 16 18" fill="none" xmlns="http://www.w3.org/2000/svg">
<path d="M13.3463 8.80001C12.5561 7.85001 11.5024 7.20001 10.4049 6.95001C9.92196 6.80001 9.43903 6.70001 8.9561 6.65001C10.1854 5.00001 9.96586 2.50001 8.51708 1.10001C7.0683 -0.299992 4.87318 -0.0499919 3.64391 1.60001C2.41464 3.25001 2.63415 5.75001 4.08293 7.15001C4.34635 7.40001 4.60976 7.60001 4.87318 7.70001V8.80001L4.17074 8.05001C3.5561 7.35001 2.54635 7.35001 1.88781 8.05001C1.27318 8.75001 1.22927 9.85001 1.84391 10.55L3.86342 13.25C3.95123 13.95 4.17074 14.6 4.47806 15.2C4.69757 15.65 5.00488 16.1 5.3122 16.45V17.4C5.3122 17.7 5.48781 17.9 5.75123 17.9H11.722C11.9415 17.9 12.161 17.65 12.161 17.4V16.1C12.9951 14.95 13.4342 13.5 13.4342 12.05V9.15001C13.4781 8.95001 13.4342 8.85001 13.3463 8.80001V8.80001ZM3.68781 4.10001C3.68781 2.45001 4.87318 1.15001 6.32196 1.20001C7.77074 1.20001 8.9122 2.55001 8.8683 4.20001C8.8683 5.10001 8.51708 5.90001 7.90245 6.45001V3.95001C7.88003 3.51669 7.71292 3.10956 7.43538 2.81207C7.15784 2.51457 6.79089 2.34926 6.40976 2.35001C5.61952 2.30001 4.91708 3.05001 4.91708 3.95001V6.55001C4.17074 6.05001 3.73171 5.10001 3.68781 4.10001ZM12.6 12C12.6439 13.3 12.2488 14.55 11.5024 15.55C11.4146 15.65 11.3268 15.75 11.3268 15.9V16.95H6.23415V16.25C6.23415 16.1 6.14635 15.95 6.05854 15.85C5.75123 15.55 5.48781 15.2 5.2683 14.75C5.00488 14.25 4.82927 13.65 4.74147 13.05C4.74147 12.95 4.69757 12.85 4.65367 12.75L2.54635 9.90001C2.41464 9.75001 2.32684 9.55001 2.32684 9.30001C2.32684 9.10001 2.41464 8.85001 2.54635 8.70001C2.85366 8.40001 3.29269 8.40001 3.60001 8.70001L4.87318 10.15V11.65L5.70732 11.15V3.95001C5.75123 3.60001 6.01464 3.30001 6.36586 3.35001C6.67318 3.35001 6.98049 3.60001 6.98049 3.95001V9.70001L7.85854 9.90001V7.60001C7.90245 7.55001 7.94635 7.55001 7.99025 7.50001C8.29757 7.50001 8.60488 7.55001 8.9122 7.60001V10.15L9.61464 10.3V7.70001L10.1415 7.85001C10.361 7.90001 10.5805 8.00001 10.8 8.10001V10.6L11.5024 10.75V8.45001C11.8976 8.65001 12.2488 8.95001 12.5561 9.30001L12.6 12V12Z" fill="black"/>
</svg>
