<svg width="21" height="22" viewBox="0 0 21 22" fill="none" xmlns="http://www.w3.org/2000/svg">
<path d="M12.4106 11L20.7006 2.71C20.8644 2.5187 20.95 2.27262 20.9403 2.02095C20.9306 1.76927 20.8262 1.53053 20.6481 1.35244C20.4701 1.17434 20.2313 1.07001 19.9796 1.06029C19.728 1.05057 19.4819 1.13618 19.2906 1.3L11.0006 9.59L2.71058 1.29C2.52228 1.1017 2.26689 0.995911 2.00058 0.995911C1.73428 0.995911 1.47889 1.1017 1.29058 1.29C1.10228 1.47831 0.996492 1.7337 0.996492 2C0.996492 2.2663 1.10228 2.5217 1.29058 2.71L9.59058 11L1.29058 19.29C1.1859 19.3796 1.10088 19.49 1.04086 19.614C0.980835 19.7381 0.947105 19.8732 0.941785 20.0109C0.936466 20.1487 0.959671 20.286 1.00995 20.4143C1.06022 20.5427 1.13648 20.6592 1.23393 20.7567C1.33139 20.8541 1.44794 20.9304 1.57626 20.9806C1.70459 21.0309 1.84192 21.0541 1.97964 21.0488C2.11736 21.0435 2.25249 21.0098 2.37655 20.9497C2.50062 20.8897 2.61094 20.8047 2.70058 20.7L11.0006 12.41L19.2906 20.7C19.4819 20.8638 19.728 20.9494 19.9796 20.9397C20.2313 20.93 20.4701 20.8257 20.6481 20.6476C20.8262 20.4695 20.9306 20.2307 20.9403 19.9791C20.95 19.7274 20.8644 19.4813 20.7006 19.29L12.4106 11Z" fill="white"/>
</svg>
