<svg width="20" height="19" viewBox="0 0 20 19" fill="none" xmlns="http://www.w3.org/2000/svg">
<path d="M19.8008 9.63779L17.6732 3.89773C17.6189 3.74951 17.5281 3.62305 17.412 3.5341C17.296 3.44516 17.1599 3.39766 17.0207 3.39752H14.8931V1.75751C14.8931 1.54003 14.8184 1.33146 14.6854 1.17768C14.5524 1.02389 14.372 0.9375 14.1839 0.9375H0.709196C0.521106 0.9375 0.340719 1.02389 0.207719 1.17768C0.0747187 1.33146 0 1.54003 0 1.75751V15.6976C0 15.9151 0.0747187 16.1237 0.207719 16.2775C0.340719 16.4313 0.521106 16.5177 0.709196 16.5177H2.22688C2.39019 17.2125 2.74672 17.8259 3.24145 18.2632C3.73618 18.7006 4.34163 18.9375 4.96437 18.9375C5.58712 18.9375 6.19257 18.7006 6.6873 18.2632C7.18203 17.8259 7.53856 17.2125 7.70187 16.5177H12.1556C12.3189 17.2125 12.6755 17.8259 13.1702 18.2632C13.6649 18.7006 14.2704 18.9375 14.8931 18.9375C15.5159 18.9375 16.1213 18.7006 16.616 18.2632C17.1108 17.8259 17.4673 17.2125 17.6306 16.5177H19.1483C19.3364 16.5177 19.5168 16.4313 19.6498 16.2775C19.7828 16.1237 19.8575 15.9151 19.8575 15.6976V9.95759C19.8573 9.84767 19.838 9.73891 19.8008 9.63779ZM14.8931 5.03754H16.5526L18.0703 9.13758H14.8931V5.03754ZM4.96437 17.3377C4.68384 17.3377 4.40961 17.2415 4.17636 17.0613C3.9431 16.8811 3.76131 16.6249 3.65395 16.3253C3.5466 16.0256 3.51851 15.6958 3.57324 15.3777C3.62796 15.0596 3.76305 14.7673 3.96142 14.538C4.15979 14.3086 4.41252 14.1524 4.68766 14.0891C4.9628 14.0259 5.24799 14.0583 5.50717 14.1825C5.76635 14.3066 5.98787 14.5168 6.14373 14.7865C6.29958 15.0562 6.38277 15.3733 6.38277 15.6976C6.38277 16.1326 6.23333 16.5498 5.96733 16.8573C5.70133 17.1649 5.34056 17.3377 4.96437 17.3377ZM12.1556 14.8776H7.70187C7.53856 14.1828 7.18203 13.5694 6.6873 13.1321C6.19257 12.6947 5.58712 12.4578 4.96437 12.4578C4.34163 12.4578 3.73618 12.6947 3.24145 13.1321C2.74672 13.5694 2.39019 14.1828 2.22688 14.8776H1.41839V2.57752H13.4747V12.8768C13.1518 13.0935 12.869 13.3818 12.6427 13.7252C12.4163 14.0685 12.2508 14.4602 12.1556 14.8776ZM14.8931 17.3377C14.6126 17.3377 14.3384 17.2415 14.1051 17.0613C13.8719 16.8811 13.6901 16.6249 13.5827 16.3253C13.4753 16.0256 13.4473 15.6958 13.502 15.3777C13.5567 15.0596 13.6918 14.7673 13.8902 14.538C14.0885 14.3086 14.3413 14.1524 14.6164 14.0891C14.8916 14.0259 15.1767 14.0583 15.4359 14.1825C15.6951 14.3066 15.9166 14.5168 16.0725 14.7865C16.2283 15.0562 16.3115 15.3733 16.3115 15.6976C16.3115 16.1326 16.1621 16.5498 15.8961 16.8573C15.6301 17.1649 15.2693 17.3377 14.8931 17.3377ZM18.4391 14.8776H17.6306C17.4738 14.1753 17.12 13.5529 16.6247 13.1078C16.1294 12.6627 15.5204 12.42 14.8931 12.4176V10.7776H18.4391V14.8776Z" fill="black"/>
</svg>
