<svg width="22" height="16" viewBox="0 0 22 16" fill="none" xmlns="http://www.w3.org/2000/svg">
<path d="M19.75 0.75H1.75C1.35218 0.75 0.970644 0.908035 0.68934 1.18934C0.408035 1.47064 0.25 1.85218 0.25 2.25V14.25C0.25 14.6478 0.408035 15.0294 0.68934 15.3107C0.970644 15.592 1.35218 15.75 1.75 15.75H19.75C20.1478 15.75 20.5294 15.592 20.8107 15.3107C21.092 15.0294 21.25 14.6478 21.25 14.25V2.25C21.25 1.85218 21.092 1.47064 20.8107 1.18934C20.5294 0.908035 20.1478 0.75 19.75 0.75V0.75ZM18.1 2.25L10.75 7.335L3.4 2.25H18.1ZM1.75 14.25V2.9325L10.3225 8.865C10.448 8.9521 10.5972 8.99877 10.75 8.99877C10.9028 8.99877 11.052 8.9521 11.1775 8.865L19.75 2.9325V14.25H1.75Z" fill="#979394"/>
</svg>
