<svg width="21" height="21" viewBox="0 0 21 21" fill="none" xmlns="http://www.w3.org/2000/svg">
<path d="M10.6666 0.666687C8.68882 0.666687 6.75542 1.25318 5.11093 2.35199C3.46644 3.4508 2.18471 5.01259 1.42783 6.83985C0.670959 8.66711 0.472926 10.6778 0.858778 12.6176C1.24463 14.5574 2.19704 16.3392 3.59556 17.7378C4.99409 19.1363 6.77592 20.0887 8.71573 20.4745C10.6555 20.8604 12.6662 20.6624 14.4935 19.9055C16.3207 19.1486 17.8825 17.8669 18.9813 16.2224C20.0801 14.5779 20.6666 12.6445 20.6666 10.6667C20.6666 8.01452 19.6131 5.47098 17.7377 3.59562C15.8623 1.72026 13.3188 0.666687 10.6666 0.666687V0.666687ZM10.6666 19.4167C8.93604 19.4167 7.24432 18.9035 5.80539 17.942C4.36646 16.9806 3.24495 15.614 2.58268 14.0152C1.92042 12.4163 1.74714 10.657 2.08476 8.95965C2.42238 7.26231 3.25574 5.70321 4.47945 4.4795C5.70315 3.25579 7.26226 2.42244 8.95959 2.08482C10.6569 1.7472 12.4163 1.92047 14.0151 2.58274C15.614 3.24501 16.9805 4.36652 17.942 5.80545C18.9034 7.24438 19.4166 8.9361 19.4166 10.6667C19.4166 12.9873 18.4948 15.2129 16.8538 16.8539C15.2129 18.4948 12.9873 19.4167 10.6666 19.4167Z" fill="black"/>
<path d="M4.41663 6.29169V6.99169C4.4178 7.07411 4.4515 7.15274 4.51038 7.21044L9.06037 11.8104C9.11925 11.8681 9.15295 11.9468 9.15412 12.0292V16.3354C9.15401 16.394 9.17035 16.4514 9.20129 16.5012C9.23224 16.5509 9.27653 16.5909 9.32912 16.6167L11.7979 17.4979C11.8456 17.5213 11.8984 17.5321 11.9515 17.5294C12.0045 17.5267 12.056 17.5105 12.101 17.4823C12.146 17.4542 12.1832 17.415 12.2089 17.3685C12.2346 17.3221 12.248 17.2698 12.2479 17.2167V11.9729C12.2565 11.8885 12.2967 11.8104 12.3604 11.7542L16.8104 7.22294C16.8693 7.16524 16.9029 7.08661 16.9041 7.00419V6.29169H4.41663Z" fill="black"/>
</svg>
