<svg width="20" height="18" viewBox="0 0 20 18" fill="none" xmlns="http://www.w3.org/2000/svg">
<path d="M19.5161 3.67173C19.2058 2.95322 18.7584 2.30211 18.1988 1.75485C17.6389 1.20596 16.9787 0.769759 16.2542 0.469978C15.5029 0.157889 14.6971 -0.0018562 13.8835 1.62724e-05C12.7422 1.62724e-05 11.6286 0.312552 10.6609 0.902897C10.4294 1.04412 10.2095 1.19923 10.0011 1.36823C9.79279 1.19923 9.57286 1.04412 9.34135 0.902897C8.37364 0.312552 7.26009 1.62724e-05 6.11876 1.62724e-05C5.2969 1.62724e-05 4.50052 0.157442 3.74811 0.469978C3.02118 0.770938 2.36601 1.20386 1.80345 1.75485C1.24319 2.30149 0.795642 2.95275 0.486167 3.67173C0.164371 4.4195 0 5.21358 0 6.0308C0 6.80172 0.157426 7.60505 0.469961 8.42228C0.731565 9.10523 1.10661 9.81364 1.58583 10.529C2.34518 11.6611 3.38928 12.8418 4.68572 14.0387C6.83412 16.0227 8.96167 17.3932 9.05196 17.4488L9.60064 17.8007C9.84372 17.9558 10.1563 17.9558 10.3993 17.8007L10.948 17.4488C11.0383 17.3909 13.1635 16.0227 15.3143 14.0387C16.6107 12.8418 17.6548 11.6611 18.4141 10.529C18.8934 9.81364 19.2707 9.10523 19.53 8.42228C19.8425 7.60505 20 6.80172 20 6.0308C20.0023 5.21358 19.8379 4.4195 19.5161 3.67173V3.67173ZM10.0011 15.9694C10.0011 15.9694 1.75946 10.6887 1.75946 6.0308C1.75946 3.67173 3.71107 1.75948 6.11876 1.75948C7.81108 1.75948 9.27884 2.70403 10.0011 4.08382C10.7235 2.70403 12.1912 1.75948 13.8835 1.75948C16.2912 1.75948 18.2428 3.67173 18.2428 6.0308C18.2428 10.6887 10.0011 15.9694 10.0011 15.9694Z" fill="black"/>
</svg>
