<svg width="17" height="15" viewBox="0 0 17 15" fill="none" xmlns="http://www.w3.org/2000/svg">
<path d="M3.75 13.75H12.5V11.25H3.75V13.75ZM3.75 7.5H12.5V3.75H10.9375C10.6771 3.75 10.4557 3.65885 10.2734 3.47656C10.0911 3.29427 10 3.07292 10 2.8125V1.25H3.75V7.5ZM15 8.125C15 7.95573 14.9382 7.80924 14.8145 7.68555C14.6908 7.56185 14.5443 7.5 14.375 7.5C14.2057 7.5 14.0592 7.56185 13.9355 7.68555C13.8118 7.80924 13.75 7.95573 13.75 8.125C13.75 8.29427 13.8118 8.44076 13.9355 8.56445C14.0592 8.68815 14.2057 8.75 14.375 8.75C14.5443 8.75 14.6908 8.68815 14.8145 8.56445C14.9382 8.44076 15 8.29427 15 8.125ZM16.25 8.125V12.1875C16.25 12.2721 16.2191 12.3454 16.1572 12.4072C16.0954 12.4691 16.0221 12.5 15.9375 12.5H13.75V14.0625C13.75 14.3229 13.6589 14.5443 13.4766 14.7266C13.2943 14.9089 13.0729 15 12.8125 15H3.4375C3.17708 15 2.95573 14.9089 2.77344 14.7266C2.59115 14.5443 2.5 14.3229 2.5 14.0625V12.5H0.3125C0.227865 12.5 0.154622 12.4691 0.0927734 12.4072C0.0309245 12.3454 0 12.2721 0 12.1875V8.125C0 7.61068 0.183919 7.1696 0.551758 6.80176C0.919596 6.43392 1.36068 6.25 1.875 6.25H2.5V0.9375C2.5 0.677083 2.59115 0.455729 2.77344 0.273438C2.95573 0.0911458 3.17708 0 3.4375 0H10C10.2604 0 10.5469 0.0651042 10.8594 0.195312C11.1719 0.325521 11.4193 0.481771 11.6016 0.664062L13.0859 2.14844C13.2682 2.33073 13.4245 2.57812 13.5547 2.89062C13.6849 3.20312 13.75 3.48958 13.75 3.75V6.25H14.375C14.8893 6.25 15.3304 6.43392 15.6982 6.80176C16.0661 7.1696 16.25 7.61068 16.25 8.125Z" fill="#979394"/>
</svg>
