<svg width="20" height="20" viewBox="0 0 20 20" fill="none" xmlns="http://www.w3.org/2000/svg">
<path d="M8.212 16.424C3.66381 16.424 0 12.7602 0 8.212C0 3.66381 3.66381 0 8.212 0C12.7602 0 16.424 3.66381 16.424 8.212C16.424 12.7602 12.7602 16.424 8.212 16.424ZM8.212 1.26338C4.35867 1.26338 1.26338 4.35867 1.26338 8.212C1.26338 12.0653 4.35867 15.1606 8.212 15.1606C12.0653 15.1606 15.1606 12.0653 15.1606 8.212C15.1606 4.35867 12.0653 1.26338 8.212 1.26338Z" fill="white"/>
<path d="M14.328 13.4342L20.0006 19.1068L19.1074 20L13.4348 14.3274L14.328 13.4342Z" fill="white"/>
</svg>
