<svg width="26" height="26" viewBox="0 0 26 26" fill="none" xmlns="http://www.w3.org/2000/svg">
<path d="M25.4865 20.4286L25.9941 24.9699C26.0231 25.2407 25.9457 25.4825 25.762 25.6953C25.5783 25.8984 25.3463 26 25.0659 26H0.93408C0.653702 26 0.421666 25.8984 0.23797 25.6953C0.0542738 25.4825 -0.0230719 25.2407 0.00593276 24.9699L0.513514 20.4286H25.4865ZM24.1378 8.25558L25.385 19.5H0.61503L1.86223 8.25558C1.89123 8.02344 1.99275 7.82757 2.16678 7.66797C2.3408 7.50837 2.54867 7.42857 2.79038 7.42857H6.50297V9.28571C6.50297 9.79836 6.68424 10.236 7.0468 10.5988C7.40936 10.9615 7.84685 11.1429 8.35926 11.1429C8.87168 11.1429 9.30916 10.9615 9.67172 10.5988C10.0343 10.236 10.2156 9.79836 10.2156 9.28571V7.42857H15.7844V9.28571C15.7844 9.79836 15.9657 10.236 16.3283 10.5988C16.6908 10.9615 17.1283 11.1429 17.6407 11.1429C18.1532 11.1429 18.5906 10.9615 18.9532 10.5988C19.3158 10.236 19.497 9.79836 19.497 9.28571V7.42857H23.2096C23.4513 7.42857 23.6592 7.50837 23.8332 7.66797C24.0072 7.82757 24.1088 8.02344 24.1378 8.25558ZM18.5689 5.57143V9.28571C18.5689 9.5372 18.477 9.75484 18.2933 9.93862C18.1096 10.1224 17.8921 10.2143 17.6407 10.2143C17.3894 10.2143 17.1718 10.1224 16.9881 9.93862C16.8044 9.75484 16.7126 9.5372 16.7126 9.28571V5.57143C16.7126 4.54613 16.35 3.67076 15.6249 2.94531C14.8998 2.21987 14.0248 1.85714 13 1.85714C11.9752 1.85714 11.1002 2.21987 10.3751 2.94531C9.64997 3.67076 9.28741 4.54613 9.28741 5.57143V9.28571C9.28741 9.5372 9.19556 9.75484 9.01187 9.93862C8.82817 10.1224 8.61064 10.2143 8.35926 10.2143C8.10789 10.2143 7.89035 10.1224 7.70666 9.93862C7.52296 9.75484 7.43111 9.5372 7.43111 9.28571V5.57143C7.43111 4.03348 7.97495 2.72042 9.06262 1.63225C10.1503 0.544085 11.4628 0 13 0C14.5372 0 15.8497 0.544085 16.9374 1.63225C18.025 2.72042 18.5689 4.03348 18.5689 5.57143Z" fill="white"/>
</svg>
